<svg id="Layer_1" data-name="Layer 1" xmlns="http://www.w3.org/2000/svg" viewBox="0 0 31 31"><defs><style>.cls-1{fill:#010101;}</style></defs><title>thumb_up</title><path class="cls-1" d="M29.91,13.19a6,6,0,0,0-4.48-2H20.66V6.53A6,6,0,0,0,15.87.69L14.8.47a2.38,2.38,0,0,0-2.75,1.64L7.85,15.92H.39v15.5H29.54l1.8-13.52A6,6,0,0,0,29.91,13.19ZM7.55,29H2.78V18.31H7.55ZM29,17.59,27.45,29H9.93V17.29l4.4-14.48L15.4,3a3.59,3.59,0,0,1,2.87,3.51v7h7.16A3.57,3.57,0,0,1,29,17.59Z" transform="translate(-0.39 -0.42)"/></svg>