<svg id="Layer_1" data-name="Layer 1" xmlns="http://www.w3.org/2000/svg" viewBox="0 0 31 31"><defs><style>.cls-1{fill:#010101;}</style></defs><title>thumb_down</title><path class="cls-1" d="M29.91,18.66a6,6,0,0,1-4.48,2H20.66v4.63a6,6,0,0,1-4.79,5.84l-1.07.22a2.38,2.38,0,0,1-2.75-1.65L7.85,15.92H.39V.42H29.54l1.8,13.52A6,6,0,0,1,29.91,18.66ZM7.55,2.81H2.78V13.54H7.55ZM29,14.26,27.45,2.81H9.93V14.55L14.33,29l1.07-.22a3.57,3.57,0,0,0,2.87-3.5v-7h7.16a3.57,3.57,0,0,0,3.54-4Z" transform="translate(-0.39 -0.42)"/></svg>